<svg width="148" height="23" viewBox="0 0 148 23" fill="none" xmlns="http://www.w3.org/2000/svg">
<path d="M33.232 13.28C33.232 13.5573 33.216 13.8506 33.184 14.16H26.176C26.2293 15.024 26.5227 15.7013 27.056 16.192C27.6 16.672 28.256 16.912 29.024 16.912C29.6533 16.912 30.176 16.768 30.592 16.48C31.0187 16.1813 31.3173 15.7866 31.488 15.296H33.056C32.8213 16.1386 32.352 16.8266 31.648 17.36C30.944 17.8826 30.0693 18.144 29.024 18.144C28.192 18.144 27.4453 17.9573 26.784 17.584C26.1333 17.2106 25.6213 16.6826 25.248 16C24.8747 15.3066 24.688 14.5066 24.688 13.6C24.688 12.6933 24.8693 11.8986 25.232 11.216C25.5947 10.5333 26.1013 10.0106 26.752 9.64797C27.4133 9.27464 28.1707 9.08797 29.024 9.08797C29.856 9.08797 30.592 9.26931 31.232 9.63198C31.872 9.99464 32.3627 10.496 32.704 11.136C33.056 11.7653 33.232 12.48 33.232 13.28ZM31.728 12.976C31.728 12.4213 31.6053 11.9466 31.36 11.552C31.1147 11.1466 30.7787 10.8426 30.352 10.64C29.936 10.4266 29.472 10.32 28.96 10.32C28.224 10.32 27.5947 10.5546 27.072 11.024C26.56 11.4933 26.2667 12.144 26.192 12.976H31.728Z" fill="black"/>
<path d="M41.2339 11.52V12.752H34.8499V11.52H41.2339Z" fill="black"/>
<path d="M45.4224 6.15998V18H43.9664V6.15998H45.4224Z" fill="black"/>
<path d="M55.9039 13.28C55.9039 13.5573 55.8879 13.8506 55.8559 14.16H48.8479C48.9012 15.024 49.1945 15.7013 49.7279 16.192C50.2719 16.672 50.9279 16.912 51.6959 16.912C52.3252 16.912 52.8479 16.768 53.2639 16.48C53.6905 16.1813 53.9892 15.7866 54.1599 15.296H55.7279C55.4932 16.1386 55.0239 16.8266 54.3199 17.36C53.6159 17.8826 52.7412 18.144 51.6959 18.144C50.8639 18.144 50.1172 17.9573 49.4559 17.584C48.8052 17.2106 48.2932 16.6826 47.9199 16C47.5465 15.3066 47.3599 14.5066 47.3599 13.6C47.3599 12.6933 47.5412 11.8986 47.9039 11.216C48.2665 10.5333 48.7732 10.0106 49.4239 9.64797C50.0852 9.27464 50.8425 9.08797 51.6959 9.08797C52.5279 9.08797 53.2639 9.26931 53.9039 9.63198C54.5439 9.99464 55.0345 10.496 55.3759 11.136C55.7279 11.7653 55.9039 12.48 55.9039 13.28ZM54.3999 12.976C54.3999 12.4213 54.2772 11.9466 54.0319 11.552C53.7865 11.1466 53.4505 10.8426 53.0239 10.64C52.6079 10.4266 52.1439 10.32 51.6319 10.32C50.8959 10.32 50.2665 10.5546 49.7439 11.024C49.2319 11.4933 48.9385 12.144 48.8639 12.976H54.3999Z" fill="black"/>
<path d="M57.2817 13.584C57.2817 12.688 57.4631 11.904 57.8257 11.232C58.1884 10.5493 58.6844 10.0213 59.3137 9.64797C59.9537 9.27464 60.6631 9.08797 61.4417 9.08797C62.2097 9.08797 62.8764 9.25331 63.4417 9.58397C64.0071 9.91464 64.4284 10.3306 64.7057 10.832V9.23197H66.1777V18H64.7057V16.368C64.4177 16.88 63.9857 17.3066 63.4097 17.648C62.8444 17.9786 62.1831 18.144 61.4257 18.144C60.6471 18.144 59.9431 17.952 59.3137 17.568C58.6844 17.184 58.1884 16.6453 57.8257 15.952C57.4631 15.2586 57.2817 14.4693 57.2817 13.584ZM64.7057 13.6C64.7057 12.9386 64.5724 12.3626 64.3057 11.872C64.0391 11.3813 63.6764 11.008 63.2177 10.752C62.7697 10.4853 62.2737 10.352 61.7297 10.352C61.1857 10.352 60.6897 10.48 60.2417 10.736C59.7937 10.992 59.4364 11.3653 59.1697 11.856C58.9031 12.3466 58.7697 12.9226 58.7697 13.584C58.7697 14.256 58.9031 14.8426 59.1697 15.344C59.4364 15.8346 59.7937 16.2133 60.2417 16.48C60.6897 16.736 61.1857 16.864 61.7297 16.864C62.2737 16.864 62.7697 16.736 63.2177 16.48C63.6764 16.2133 64.0391 15.8346 64.3057 15.344C64.5724 14.8426 64.7057 14.2613 64.7057 13.6Z" fill="black"/>
<path d="M70.0942 10.656C70.3502 10.1546 70.7129 9.76531 71.1822 9.48798C71.6622 9.21064 72.2436 9.07197 72.9262 9.07197V10.576H72.5422C70.9102 10.576 70.0942 11.4613 70.0942 13.232V18H68.6382V9.23197H70.0942V10.656Z" fill="black"/>
<path d="M78.879 9.07197C79.9457 9.07197 80.8097 9.39731 81.471 10.048C82.1323 10.688 82.463 11.616 82.463 12.832V18H81.023V13.04C81.023 12.1653 80.8043 11.4986 80.367 11.04C79.9297 10.5706 79.3323 10.336 78.575 10.336C77.807 10.336 77.1937 10.576 76.735 11.056C76.287 11.536 76.063 12.2346 76.063 13.152V18H74.607V9.23197H76.063V10.48C76.351 10.032 76.7403 9.68531 77.231 9.43997C77.7323 9.19464 78.2817 9.07197 78.879 9.07197Z" fill="black"/>
<path d="M85.5934 7.80797C85.316 7.80797 85.0814 7.71197 84.8894 7.51997C84.6974 7.32797 84.6014 7.09331 84.6014 6.81597C84.6014 6.53864 84.6974 6.30397 84.8894 6.11197C85.0814 5.91997 85.316 5.82397 85.5934 5.82397C85.86 5.82397 86.084 5.91997 86.2654 6.11197C86.4574 6.30397 86.5534 6.53864 86.5534 6.81597C86.5534 7.09331 86.4574 7.32797 86.2654 7.51997C86.084 7.71197 85.86 7.80797 85.5934 7.80797ZM86.2974 9.23197V18H84.8414V9.23197H86.2974Z" fill="black"/>
<path d="M93.0509 9.07197C94.1175 9.07197 94.9815 9.39731 95.6429 10.048C96.3042 10.688 96.6349 11.616 96.6349 12.832V18H95.1949V13.04C95.1949 12.1653 94.9762 11.4986 94.5389 11.04C94.1015 10.5706 93.5042 10.336 92.7469 10.336C91.9789 10.336 91.3655 10.576 90.9069 11.056C90.4589 11.536 90.2349 12.2346 90.2349 13.152V18H88.7789V9.23197H90.2349V10.48C90.5229 10.032 90.9122 9.68531 91.4029 9.43997C91.9042 9.19464 92.4535 9.07197 93.0509 9.07197Z" fill="black"/>
<path d="M102.629 9.08797C103.387 9.08797 104.048 9.25331 104.613 9.58397C105.189 9.91464 105.616 10.3306 105.893 10.832V9.23197H107.365V18.192C107.365 18.992 107.195 19.7013 106.853 20.32C106.512 20.9493 106.021 21.44 105.381 21.792C104.752 22.144 104.016 22.32 103.173 22.32C102.021 22.32 101.061 22.048 100.293 21.504C99.5252 20.96 99.0719 20.2186 98.9332 19.28H100.373C100.533 19.8133 100.864 20.24 101.365 20.56C101.867 20.8906 102.469 21.056 103.173 21.056C103.973 21.056 104.624 20.8053 105.125 20.304C105.637 19.8026 105.893 19.0986 105.893 18.192V16.352C105.605 16.864 105.179 17.2906 104.613 17.632C104.048 17.9733 103.387 18.144 102.629 18.144C101.851 18.144 101.141 17.952 100.501 17.568C99.8719 17.184 99.3759 16.6453 99.0132 15.952C98.6506 15.2586 98.4692 14.4693 98.4692 13.584C98.4692 12.688 98.6506 11.904 99.0132 11.232C99.3759 10.5493 99.8719 10.0213 100.501 9.64797C101.141 9.27464 101.851 9.08797 102.629 9.08797ZM105.893 13.6C105.893 12.9386 105.76 12.3626 105.493 11.872C105.227 11.3813 104.864 11.008 104.405 10.752C103.957 10.4853 103.461 10.352 102.917 10.352C102.373 10.352 101.877 10.48 101.429 10.736C100.981 10.992 100.624 11.3653 100.357 11.856C100.091 12.3466 99.9572 12.9226 99.9572 13.584C99.9572 14.256 100.091 14.8426 100.357 15.344C100.624 15.8346 100.981 16.2133 101.429 16.48C101.877 16.736 102.373 16.864 102.917 16.864C103.461 16.864 103.957 16.736 104.405 16.48C104.864 16.2133 105.227 15.8346 105.493 15.344C105.76 14.8426 105.893 14.2613 105.893 13.6Z" fill="black"/>
<path d="M110.29 18.096C110.012 18.096 109.778 18 109.586 17.808C109.394 17.616 109.298 17.3813 109.298 17.104C109.298 16.8266 109.394 16.592 109.586 16.4C109.778 16.208 110.012 16.112 110.29 16.112C110.556 16.112 110.78 16.208 110.962 16.4C111.154 16.592 111.25 16.8266 111.25 17.104C111.25 17.3813 111.154 17.616 110.962 17.808C110.78 18 110.556 18.096 110.29 18.096Z" fill="black"/>
<path d="M112.641 13.6C112.641 12.6933 112.822 11.904 113.185 11.232C113.548 10.5493 114.049 10.0213 114.689 9.64797C115.34 9.27464 116.081 9.08797 116.913 9.08797C117.99 9.08797 118.876 9.34931 119.569 9.87197C120.273 10.3946 120.737 11.12 120.961 12.048H119.393C119.244 11.5146 118.95 11.0933 118.513 10.784C118.086 10.4746 117.553 10.32 116.913 10.32C116.081 10.32 115.409 10.608 114.897 11.184C114.385 11.7493 114.129 12.5546 114.129 13.6C114.129 14.656 114.385 15.472 114.897 16.048C115.409 16.624 116.081 16.912 116.913 16.912C117.553 16.912 118.086 16.7626 118.513 16.464C118.94 16.1653 119.233 15.7386 119.393 15.184H120.961C120.726 16.08 120.257 16.8 119.553 17.344C118.849 17.8773 117.969 18.144 116.913 18.144C116.081 18.144 115.34 17.9573 114.689 17.584C114.049 17.2106 113.548 16.6826 113.185 16C112.822 15.3173 112.641 14.5173 112.641 13.6Z" fill="black"/>
<path d="M126.728 18.144C125.907 18.144 125.16 17.9573 124.488 17.584C123.827 17.2106 123.304 16.6826 122.92 16C122.547 15.3066 122.36 14.5066 122.36 13.6C122.36 12.704 122.552 11.9146 122.936 11.232C123.331 10.5386 123.864 10.0106 124.536 9.64797C125.208 9.27464 125.96 9.08797 126.792 9.08797C127.624 9.08797 128.376 9.27464 129.048 9.64797C129.72 10.0106 130.248 10.5333 130.632 11.216C131.027 11.8986 131.224 12.6933 131.224 13.6C131.224 14.5066 131.021 15.3066 130.616 16C130.221 16.6826 129.683 17.2106 129 17.584C128.317 17.9573 127.56 18.144 126.728 18.144ZM126.728 16.864C127.251 16.864 127.741 16.7413 128.2 16.496C128.659 16.2506 129.027 15.8826 129.304 15.392C129.592 14.9013 129.736 14.304 129.736 13.6C129.736 12.896 129.597 12.2986 129.32 11.808C129.043 11.3173 128.68 10.9546 128.232 10.72C127.784 10.4746 127.299 10.352 126.776 10.352C126.243 10.352 125.752 10.4746 125.304 10.72C124.867 10.9546 124.515 11.3173 124.248 11.808C123.981 12.2986 123.848 12.896 123.848 13.6C123.848 14.3146 123.976 14.9173 124.232 15.408C124.499 15.8986 124.851 16.2666 125.288 16.512C125.725 16.7466 126.205 16.864 126.728 16.864Z" fill="black"/>
<path d="M143.682 9.07197C144.365 9.07197 144.973 9.21597 145.506 9.50397C146.04 9.78131 146.461 10.2026 146.77 10.768C147.08 11.3333 147.234 12.0213 147.234 12.832V18H145.794V13.04C145.794 12.1653 145.576 11.4986 145.138 11.04C144.712 10.5706 144.13 10.336 143.394 10.336C142.637 10.336 142.034 10.5813 141.586 11.072C141.138 11.552 140.914 12.2506 140.914 13.168V18H139.474V13.04C139.474 12.1653 139.256 11.4986 138.818 11.04C138.392 10.5706 137.81 10.336 137.074 10.336C136.317 10.336 135.714 10.5813 135.266 11.072C134.818 11.552 134.594 12.2506 134.594 13.168V18H133.138V9.23197H134.594V10.496C134.882 10.0373 135.266 9.68531 135.746 9.43997C136.237 9.19464 136.776 9.07197 137.362 9.07197C138.098 9.07197 138.749 9.23731 139.314 9.56798C139.88 9.89864 140.301 10.384 140.578 11.024C140.824 10.4053 141.229 9.92531 141.794 9.58397C142.36 9.24264 142.989 9.07197 143.682 9.07197Z" fill="black"/>
<g clip-path="url(#clip0)">
<path d="M14.3564 1.80394C13.1748 0.630617 11.6094 -0.0126626 9.95484 0.000188909C6.57043 0.024017 3.80431 2.8146 3.78864 6.2208C3.78216 7.62611 4.2338 8.95384 5.09485 10.0605C5.7043 10.8438 5.97606 11.7889 5.97606 13.125C5.97606 14.9836 6.32102 17.2188 6.3502 17.4045C6.50778 18.6278 7.54504 19.949 9.98726 19.9999C9.99484 20 10.0039 20.0001 10.0117 19.9999C12.4539 19.949 13.4912 18.6278 13.6487 17.4046C13.6779 17.2194 14.0229 14.9939 14.0229 13.4375C14.0229 11.9807 14.3271 10.7926 14.8794 10.0922C16.8241 7.6256 16.6316 4.06311 14.3564 1.80394V1.80394ZM12.7694 14.9609C12.7259 15.4397 12.6714 15.9054 12.6221 16.2891H7.37953C7.33278 15.913 7.2811 15.4526 7.2384 14.9609H12.7694ZM9.99949 18.828C8.67043 18.7974 7.77637 18.2915 7.5536 17.4609H12.4454C12.2226 18.2915 11.3285 18.7973 9.99949 18.828ZM13.9591 9.36654C13.2446 10.2728 12.851 11.7186 12.851 13.4375C12.851 13.5507 12.849 13.6683 12.8452 13.7891H10.5854V8.99271L11.6638 7.91431C11.8926 7.68549 11.8926 7.31451 11.6638 7.08568C11.435 6.85686 11.064 6.85686 10.8352 7.08568L9.99945 7.92135L9.16375 7.08568C8.93496 6.85686 8.56395 6.85686 8.33512 7.08568C8.10629 7.31455 8.10629 7.68549 8.33512 7.91431L9.41348 8.99271V13.7891H7.16203C7.11907 12.7169 7.27118 10.9493 6.01965 9.34091C5.32141 8.44349 4.95516 7.36646 4.96044 6.22623C4.97321 3.44975 7.23356 1.17191 9.99887 1.17191C12.7805 1.17191 15.0385 3.46049 15.0385 6.25002C15.0385 7.39326 14.6653 8.47095 13.9591 9.36654V9.36654Z" fill="black"/>
</g>
<defs>
<clipPath id="clip0">
<rect width="20" height="20" fill="white"/>
</clipPath>
</defs>
</svg>
